<svg xmlns="http://www.w3.org/2000/svg" xmlns:xlink="http://www.w3.org/1999/xlink" viewBox="0 0 661.49 395.4"><defs><style>.cls-1{fill:#e1e8f6;}.cls-1,.cls-10,.cls-11,.cls-12,.cls-13,.cls-14,.cls-15,.cls-16,.cls-18,.cls-2,.cls-21,.cls-22,.cls-23,.cls-24,.cls-25,.cls-26,.cls-27,.cls-28,.cls-29,.cls-3,.cls-32,.cls-33,.cls-34,.cls-35,.cls-36,.cls-4,.cls-41,.cls-42,.cls-44,.cls-45,.cls-6,.cls-7,.cls-8,.cls-9{fill-rule:evenodd;}.cls-2{fill:#b4c5e6;}.cls-3,.cls-30,.cls-38{fill:#fff;}.cls-4{fill:#9fb2d9;}.cls-5,.cls-8{fill:#00000f;}.cls-6{fill:url(#GradientFill_1);}.cls-7{fill:#101537;}.cls-9{fill:#b32720;}.cls-10{fill:#d64c47;}.cls-11,.cls-37{fill:#3b405f;}.cls-12{fill:#674834;}.cls-13,.cls-19{fill:#b56b41;}.cls-14,.cls-20{fill:#d58750;}.cls-15{fill:#ea5756;}.cls-16{fill:#db4141;}.cls-17{fill:#fffaf9;}.cls-18{fill:#131936;}.cls-21{fill:#050a25;}.cls-22{fill:#f5ac83;}.cls-23{fill:#f2d8cd;}.cls-24,.cls-43{fill:#dcdcee;}.cls-25,.cls-39{fill:#b5b6d3;}.cls-26{fill:#d0d0e6;}.cls-27{fill:#9295bc;}.cls-28{fill:#c0cdea;}.cls-29{fill:#f9b100;}.cls-30{font-size:23.92px;font-family:OpenSans-Bold, OpenSans Bold;font-weight:700;}.cls-31{letter-spacing:0.04em;}.cls-32{fill:#294d3c;}.cls-33{fill:#4a9075;}.cls-34{fill:#1b7154;}.cls-35{fill:#a6c86b;}.cls-36{fill:#5f9850;}.cls-40{fill:#151d3d;}.cls-41{fill:#33385c;}.cls-42{fill:#484e78;}.cls-44{fill:#cdcde2;}.cls-45{fill:#ededf6;}</style><linearGradient id="GradientFill_1" x1="173.64" y1="131.39" x2="152.52" y2="119.92" gradientUnits="userSpaceOnUse"><stop offset="0" stop-color="#e1e8f6"/><stop offset="1" stop-color="#fff"/></linearGradient></defs><g id="Layer_2" data-name="Layer 2"><g id="OBJECTS"><path class="cls-1" d="M512.93,275.85h56.74a55.68,55.68,0,0,1,55.52,55.52h0a55.68,55.68,0,0,1-55.52,55.52H89.91C40.46,386.89,0,346.44,0,297H0c0-49.45,40.46-89.91,89.91-89.91h0a38.12,38.12,0,0,0,38-38h0a38.12,38.12,0,0,0-38-38H44.16A39.65,39.65,0,0,1,4.63,91.53h0A39.65,39.65,0,0,1,44.16,52H102a15.43,15.43,0,0,0,15.38-15.39h0A15.42,15.42,0,0,0,102,21.24H91.81A10.65,10.65,0,0,1,81.19,10.62h0A10.65,10.65,0,0,1,91.81,0h66.92C172.82,0,174.39,16.65,210,16.65h82.55A13.9,13.9,0,0,1,306.4,30.51h0a13.9,13.9,0,0,1-13.86,13.85H279.23a20.14,20.14,0,0,0-20.08,20.08h0a20.14,20.14,0,0,0,20.08,20.08h40c54.08,0,61.72,14.13,71.19,42.24s58.66,30.37,58.66,30.37h67.26a30.35,30.35,0,0,1,30.26,30.26h0a30.35,30.35,0,0,1-30.26,30.26h-3.46a29.19,29.19,0,0,0-29.1,29.1h0a29.19,29.19,0,0,0,29.1,29.1ZM62,21.24A10.62,10.62,0,1,0,51.39,10.62,10.63,10.63,0,0,0,62,21.24Z"/><path class="cls-2" d="M461.62,387.48c5.75-8.34,17.79-22.2,40.83-36,36.44-21.83,64.05-50.77,51.92-67.89-11.91-16.8-65.28,15.65-109.6,96.77A98.16,98.16,0,0,0,461.62,387.48Z"/><path class="cls-3" d="M454.5,380.07a22.28,22.28,0,0,1,7.18,1,.47.47,0,1,0,.27-.89,24.31,24.31,0,0,0-6.9-1c.78-1.34,1.57-2.65,2.36-3.95,1.61,0,6.8-.14,8.75,0a.46.46,0,0,0,0-.92c-1.79-.1-6.19,0-8.23,0q2.22-3.64,4.43-7.06a104.56,104.56,0,0,1,11.73.88.46.46,0,0,0,.52-.39.47.47,0,0,0-.4-.53,109,109,0,0,0-11.26-.88c1.49-2.3,3-4.53,4.47-6.7a154.2,154.2,0,0,1,16.75,1.26.46.46,0,1,0,.12-.91,156,156,0,0,0-16.23-1.27q2.94-4.25,5.85-8.17c2.24-.09,11.49-.33,18.43,1.9a.47.47,0,0,0,.29-.89c-6.47-2.07-14.87-2.05-18-2q3.58-4.78,7.12-9.09c3,.17,15.29,1.1,21,5.15a.45.45,0,0,0,.64-.11.47.47,0,0,0-.11-.65c-5.56-3.93-16.88-5-20.82-5.28q3.75-4.55,7.42-8.57a96.06,96.06,0,0,1,20.25,7.15.46.46,0,1,0,.41-.82,97,97,0,0,0-20-7.12q2.17-2.35,4.3-4.56a104.62,104.62,0,0,1,23.17,8.31.47.47,0,0,0,.4-.84,107.72,107.72,0,0,0-22.8-8.25c3.36-3.44,6.65-6.57,9.82-9.41,2.69.89,16.31,5.5,23.47,10.05a.46.46,0,0,0,.64-.14.47.47,0,0,0-.14-.64c-6.88-4.37-19.55-8.77-23.16-10q2.78-2.45,5.43-4.62a137.15,137.15,0,0,1,22.49,10.08.46.46,0,0,0,.47-.8,136.39,136.39,0,0,0-22.11-10c4.15-3.34,8.06-6.16,11.66-8.54,2.28.54,12.56,3.11,20.28,7.59a.46.46,0,0,0,.47-.8c-7.1-4.12-16.31-6.64-19.69-7.48q2.24-1.45,4.3-2.67A71.13,71.13,0,0,1,547.15,302a.47.47,0,0,0,.6-.27.45.45,0,0,0-.26-.6A76.27,76.27,0,0,0,531,296.74c11.09-6.4,18-8,18-8a.7.7,0,1,0-.34-1.35,54.37,54.37,0,0,0-8.33,3,42.92,42.92,0,0,1,4-4.65.46.46,0,0,0-.48-.79c-.84.51-4.22,4.8-5.38,6.28-2.14,1-4.56,2.24-7.25,3.76l4.57-9.09a.46.46,0,0,0-.82-.41l-5.21,10.34c-1.84,1.08-3.79,2.28-5.85,3.63l4.93-10.77a.45.45,0,0,0-.23-.61.46.46,0,0,0-.61.22l-5.55,12.13c-3.07,2.07-6.35,4.45-9.8,7.18l4.27-11.16a.46.46,0,0,0-.26-.6.47.47,0,0,0-.6.27l-4.84,12.65c-1.57,1.28-3.18,2.62-4.82,4L510,302.77a.47.47,0,0,0-.27-.6.48.48,0,0,0-.6.28L505,314.09c-3,2.7-6.17,5.66-9.38,8.9l2.73-9.82a.46.46,0,0,0-.32-.57.46.46,0,0,0-.57.32l-3.18,11.43q-1.9,2-3.85,4.07l1.53-7.5a.46.46,0,0,0-.91-.19l-1.83,9q-3.61,4-7.32,8.42l1.43-8.36a.46.46,0,0,0-.91-.15l-1.7,9.94c-2.16,2.63-4.34,5.41-6.53,8.31l.92-7.42a.46.46,0,1,0-.91-.12l-1.13,9q-2.88,3.86-5.77,8l0-6.7a.46.46,0,1,0-.92,0l-.06,8.06c-1.39,2-2.79,4.13-4.19,6.27l-.72-5.71a.48.48,0,0,0-.52-.4.46.46,0,0,0-.4.52l.85,6.8c-1.28,2-2.57,4-3.86,6.13l-.68-3.69a.46.46,0,0,0-.91.16l.86,4.71c-1,1.58-1.93,3.19-2.89,4.82l-1.53-3a.46.46,0,0,0-.82.42l1.8,3.56c-.79,1.34-1.57,2.69-2.36,4.07l1.28.57Q453.38,382,454.5,380.07Z"/><path class="cls-4" d="M455,392.2c6.16-3.89,17-9.11,33.43-11.45,27.85-4,52.7-15.38,50.82-30.6-1.82-14.67-41.29-9-90.42,30.77L455,392.16Z"/><path class="cls-2" d="M531.74,352.42a1,1,0,0,0,1-1,1,1,0,0,0-1-.95,67.49,67.49,0,0,0-8.44.71l4.54-3.07a.63.63,0,0,0,.17-.88.64.64,0,0,0-.88-.18l-6.75,4.56c-2.47.41-5.28,1-8.38,1.7l4.77-4.56a.63.63,0,0,0,0-.9.63.63,0,0,0-.9,0l-6.4,6.11c-3.22.83-6.7,1.88-10.4,3.17l4-4.1a.66.66,0,0,0,0-.91.64.64,0,0,0-.9,0l-5.83,6c-3.87,1.45-7.93,3.17-12.13,5.22l3.37-4.34a.63.63,0,0,0-.11-.89.65.65,0,0,0-.89.11l-5,6.45c-3.95,2-8,4.34-12.11,7l1.38-2.95a.64.64,0,1,0-1.15-.54L467.44,373q-4.68,3.12-9.43,6.83l1.27-3a.64.64,0,0,0-1.18-.5l-2.18,5.17q-2.31,1.88-4.61,3.9l.93,1.72q2.31-2,4.62-3.92c1.57.1,5.35.42,6.93,1.25a.64.64,0,0,0,.86-.27.63.63,0,0,0-.26-.86,20,20,0,0,0-6.09-1.28q1.83-1.46,3.65-2.82a26.83,26.83,0,0,1,7.87,2.44.65.65,0,0,0,.87-.25.64.64,0,0,0-.24-.86,25.93,25.93,0,0,0-7.11-2.37c2.51-1.83,5-3.52,7.47-5.1,2.12.87,8.83,3.73,11.46,5.89a.64.64,0,1,0,.81-1c-2.47-2-8.23-4.59-11-5.74q4-2.47,7.84-4.56c2.11.81,9,3.61,13.55,7.21a.65.65,0,0,0,.9-.11.64.64,0,0,0-.11-.89c-4.09-3.24-10-5.84-12.87-7,1.27-.66,2.53-1.3,3.79-1.91a61.69,61.69,0,0,1,16.51,8.26.63.63,0,1,0,.75-1,62.78,62.78,0,0,0-15.61-8,138.87,138.87,0,0,1,13-5.32c2.43,1.51,11.85,7.43,16,11.34a.64.64,0,0,0,.88-.92c-3.82-3.62-12-8.86-15.29-10.95,3.06-1,6-1.88,8.67-2.58,2.19,1.67,10.25,7.84,12.13,9.46a.62.62,0,0,0,.89-.07.65.65,0,0,0-.06-.9c-1.72-1.47-8.47-6.66-11.39-8.89,3.54-.88,6.73-1.49,9.45-1.93,2,1.71,6.69,5.83,7.79,6.93a.64.64,0,0,0,.9-.9c-1-1-4.79-4.32-7-6.28A69,69,0,0,1,531.74,352.42Z"/><path class="cls-4" d="M363.73,307.35q-.62-8.33-.58-16.16c0-5.31.26-10.42.7-15.36,1.65-18.44,6.12-34.35,12.8-47.94a108.68,108.68,0,0,1,28.58-36.23,123.86,123.86,0,0,1,36-20.42,162.42,162.42,0,0,1,44.34-9.33q7.72-.56,15.55-.49c5.26.05,10.52.31,15.74.78h0a2.18,2.18,0,0,1,2,2.33l0,.15c-.22,2-4.91,45.6-26.13,85-21.47,39.82-59.78,75.35-127.31,59.7a2.17,2.17,0,0,1-1.18-.73,2.1,2.1,0,0,1-.48-1.25ZM516.47,165.61A228.62,228.62,0,0,0,489,179c5.68,1,18.57,3.4,24.35,5.25,1.91-9.25,2.82-16,3.13-18.68Zm-3.56,20.71h0c-6.69-2.18-24.11-5.22-26.7-5.67-7.25,4.2-15.41,9.33-24.08,15.49L507.31,208c2.41-8,4.23-15.35,5.6-21.7ZM506.7,210l-46.77-12.3a310.84,310.84,0,0,0-25.09,20.18c9.27,2.82,53.62,16.41,61.13,20.21A229,229,0,0,0,506.7,210Zm-11.6,30c-7.56-3.87-56.51-18.79-62.05-20.47-6.83,6.2-13.71,13-20.47,20.45l69.66,22.24a.9.9,0,0,1,.24.12c3-4.46,5.75-9,8.25-13.7,1.55-2.86,3-5.75,4.37-8.64ZM481.29,264,411.06,241.6c-5.25,5.88-10.43,12.14-15.45,18.82,11.35,3.83,69.49,21.92,69.67,22a.91.91,0,0,1,.41.25A128.69,128.69,0,0,0,481.29,264Zm-17.2,20.17c-6.16-1.92-60.58-18.86-69.77-22q-6.46,8.72-12.5,18.34c13.74,6.79,59.92,18.77,60.05,18.81a1,1,0,0,1,.63.47,100.11,100.11,0,0,0,21.59-15.59ZM440.15,301c-7.4-2-46.9-12.48-59.42-18.73q-3.83,6.24-7.44,12.89c5.27,2.08,28.89,11.14,44.15,12.7a1,1,0,0,1,.89.75A92.81,92.81,0,0,0,440.15,301Zm-26.33,8.47c-15.63-2.44-37-10.71-41.51-12.49q-2.73,5.1-5.29,10.45c17.55,3.93,33.08,4.32,46.8,2Zm-48-4.29q2.37-4.89,4.88-9.58c-2.1-5.85-3.66-16-4.43-21.65-.07.7-.14,1.39-.2,2.1-.43,4.86-.67,9.92-.69,15.16q0,6.75.44,14Zm1.08-36.54a1,1,0,0,1,.9.91c0,.05,1.64,14.92,4.25,23.56q3.48-6.34,7.19-12.35a201.58,201.58,0,0,1-6.81-36.52,137.83,137.83,0,0,0-5.53,24.4Zm6.71-27.83a1,1,0,0,1,.69.9,197.93,197.93,0,0,0,6.41,36.7q5.84-9.25,12.09-17.65c-1.22-3.58-8.25-24.93-9.23-40.8q-2.62,4.27-4.92,8.93a117.44,117.44,0,0,0-5,11.92Zm11.46-23.24a1.06,1.06,0,0,1,.49.83c.55,14.36,6.73,34.24,8.74,40.35,4.95-6.55,10.05-12.72,15.23-18.51-9.25-19.61-10.65-35.58-10.85-39.56a105.57,105.57,0,0,0-13.61,16.89ZM400.4,199a1,1,0,0,1,.3.7c0,.05.19,17,10.33,38.9,6.78-7.46,13.68-14.29,20.54-20.52-4.16-9.35-8.17-32.63-8.71-35.81a114.82,114.82,0,0,0-16.21,11.15Q403.43,196,400.4,199Zm24.32-17.77a1.23,1.23,0,0,1,.11.34c0,.07,4.1,24.88,8.35,35.06a310.62,310.62,0,0,1,25.41-20.46c-3-12-2.94-25-2.91-27.08-4.63,1.22-9.2,2.64-13.65,4.29a129.86,129.86,0,0,0-17.31,7.85Zm33-12.65a1.12,1.12,0,0,1,0,.27,115.18,115.18,0,0,0,2.64,26c8.83-6.29,17.14-11.53,24.52-15.82a74.66,74.66,0,0,1-.29-14.78,167.93,167.93,0,0,0-26.9,4.31Zm29-4.46a.85.85,0,0,1,0,.16,73.53,73.53,0,0,0,.16,13.66,241.2,241.2,0,0,1,27.54-13.67c-4.4-.34-8.83-.54-13.26-.58Q493.94,163.59,486.69,164.08Z"/><rect class="cls-5" x="42.72" y="387.58" width="574.46" height="7.82" rx="3.91"/><rect class="cls-5" x="21.33" y="387.58" width="15.8" height="7.82" rx="3.91"/><rect class="cls-5" x="630.04" y="387.58" width="31.45" height="7.82" rx="3.91"/><polygon class="cls-6" points="141.95 127.22 157.33 168.07 192.01 144.4 201.78 106.97 197.05 98.57 157.91 102.31 145.54 112.21 141.95 127.22"/><path class="cls-3" d="M149.86,120.19a5.18,5.18,0,1,0-5.17-5.17A5.19,5.19,0,0,0,149.86,120.19Z"/><path class="cls-7" d="M101.36,134.74,130.94,101a.55.55,0,0,1,.76,0l1.76,1.55a.54.54,0,0,1,0,.75L103.92,137a.54.54,0,0,1-.75,0l-1.76-1.55a.52.52,0,0,1,0-.75Zm30-32.61L102.51,135l1,.84L132.35,103Z"/><path class="cls-8" d="M131.08,100.07a3,3,0,1,1-2.58,3.33A3,3,0,0,1,131.08,100.07Z"/><path class="cls-7" d="M101.34,134.9l20.8,39.74a.54.54,0,0,0,.72.23l2.08-1.09a.53.53,0,0,0,.22-.72l-20.8-39.74a.53.53,0,0,0-.72-.23l-2.08,1.09a.53.53,0,0,0-.22.72Zm21.5,38.77-20.31-38.79,1.13-.59L124,173.08Z"/><path class="cls-8" d="M122.05,175.6a3,3,0,1,0-1.73-3.85A3,3,0,0,0,122.05,175.6Z"/><path class="cls-8" d="M103,132a3,3,0,1,1-2.59,3.34A3,3,0,0,1,103,132Z"/><path class="cls-9" d="M121.3,183.9h38.26a5.55,5.55,0,0,0,5.54-5.54h0a5.56,5.56,0,0,0-5.54-5.55H121.3a5.56,5.56,0,0,0-5.54,5.55h0A5.55,5.55,0,0,0,121.3,183.9Z"/><path class="cls-10" d="M95.87,183.9h38.25a5.56,5.56,0,0,0,5.55-5.54h0a5.57,5.57,0,0,0-5.55-5.55H95.87a5.57,5.57,0,0,0-5.55,5.55h0A5.56,5.56,0,0,0,95.87,183.9Z"/><path class="cls-10" d="M157.78,102.81,142,127.22a.75.75,0,0,1-.73.36.78.78,0,0,1-.65-.49l-9.15-23.28a.75.75,0,0,1,.07-.71.78.78,0,0,1,.62-.36l25-1.14a.77.77,0,0,1,.71.39A.78.78,0,0,1,157.78,102.81Z"/><polygon class="cls-3" points="140.14 126 138.81 122.6 152.28 101.82 155.93 101.66 140.14 126"/><path class="cls-10" d="M134,100.09l6.52,4.22a3.9,3.9,0,0,1,1.15,5.38h0a3.9,3.9,0,0,1-5.37,1.15l-6.52-4.23a3.9,3.9,0,0,1-1.15-5.38h0A3.89,3.89,0,0,1,134,100.09Z"/><path class="cls-8" d="M130.93,102.68a1.24,1.24,0,1,1-1.71.36A1.23,1.23,0,0,1,130.93,102.68Z"/><path class="cls-3" d="M169.33,128.62a1.08,1.08,0,0,0-2.16,0v2.54h-2.54a1.08,1.08,0,1,0,0,2.16h2.54v2.54a1.08,1.08,0,1,0,2.16,0v-2.54h2.54a1.08,1.08,0,0,0,0-2.16h-2.54Z"/><path class="cls-3" d="M154.22,124a1.08,1.08,0,0,0-2.16,0v2.53h-2.54a1.08,1.08,0,0,0,0,2.16h2.54v2.54a1.08,1.08,0,0,0,2.16,0v-2.54h2.53a1.08,1.08,0,1,0,0-2.16h-2.53Z"/><path class="cls-3" d="M190.27,107a1.08,1.08,0,0,0-2.16,0v2.54h-2.54a1.08,1.08,0,1,0,0,2.16h2.54v2.53a1.08,1.08,0,0,0,2.16,0v-2.53h2.54a1.08,1.08,0,0,0,0-2.16h-2.54Z"/><path class="cls-3" d="M169.8,111.63a.47.47,0,1,0-.94,0v1.12h-1.12a.47.47,0,0,0-.47.47.48.48,0,0,0,.47.48h1.12v1.11a.47.47,0,1,0,.94,0V113.7h1.12a.48.48,0,0,0,.47-.48.47.47,0,0,0-.47-.47H169.8Z"/><path class="cls-3" d="M158.86,136.78a.47.47,0,0,0-.94,0v1.12H156.8a.47.47,0,0,0,0,.94h1.12V140a.47.47,0,0,0,.94,0v-1.12H160a.47.47,0,0,0,0-.94h-1.12Z"/><path class="cls-3" d="M181.47,124.56a.47.47,0,0,0-.94,0v1.11h-1.12a.48.48,0,0,0-.47.48.47.47,0,0,0,.47.47h1.12v1.12a.47.47,0,1,0,.94,0v-1.12h1.12a.47.47,0,0,0,.47-.47.48.48,0,0,0-.47-.48h-1.12Z"/><path class="cls-3" d="M158.1,114.32a.48.48,0,0,0-.95,0v1.12H156a.48.48,0,0,0-.48.47.49.49,0,0,0,.48.48h1.11v1.11a.48.48,0,1,0,.95,0v-1.11h1.12a.48.48,0,0,0,.47-.48.47.47,0,0,0-.47-.47H158.1Z"/><path class="cls-3" d="M179.34,103a.48.48,0,0,0-.48-.47.47.47,0,0,0-.47.47v1.11h-1.12a.48.48,0,0,0-.47.48.47.47,0,0,0,.47.47h1.12v1.12a.47.47,0,0,0,.47.47.48.48,0,0,0,.48-.47v-1.12h1.11a.47.47,0,0,0,.47-.47.48.48,0,0,0-.47-.48h-1.11Z"/><path class="cls-3" d="M198.89,127.46a.48.48,0,0,0-.95,0v1.12h-1.11a.47.47,0,1,0,0,.94h1.11v1.12a.48.48,0,0,0,.95,0v-1.12H200a.47.47,0,1,0,0-.94h-1.11Z"/><path class="cls-3" d="M172.46,155a.47.47,0,0,0-.47-.47.48.48,0,0,0-.48.47v1.11H170.4a.49.49,0,0,0-.48.48.48.48,0,0,0,.48.47h1.11v1.12a.48.48,0,0,0,.48.47.47.47,0,0,0,.47-.47V157h1.12a.47.47,0,0,0,.47-.47.48.48,0,0,0-.47-.48h-1.12Z"/><path class="cls-3" d="M192,143.28a.48.48,0,0,0-.95,0v1.12H190a.47.47,0,1,0,0,.94h1.11v1.12a.48.48,0,0,0,.95,0v-1.12h1.11a.47.47,0,1,0,0-.94H192Z"/><path class="cls-11" d="M446.07,195.91a5.71,5.71,0,0,0-11.4.76c.82,12.1,2.14,25.55,4.09,40.47H335c2.06-14.84,3.69-28.21,5-40.25a5.72,5.72,0,0,0-11.37-1.2c-2.55,23.77-6.45,52.75-12.26,88-4.94,30-11.27,64.43-19.3,104h11.64c7.88-38.83,14.08-72.67,18.94-102.12q3.25-19.71,5.74-36.88h107q2.49,17.25,6.1,37c5.4,29.47,12.83,63.28,22.85,102h11.79c-10.32-39.64-17.92-74.11-23.41-104.06-2.71-14.76-4.9-28.41-6.66-41.05a4.49,4.49,0,0,0-.11-.82C448.54,224.6,447,209.41,446.07,195.91Z"/><path class="cls-8" d="M209.68,251.66a3,3,0,0,0-6.06,0V387.6h6.06V347.38h46.4V387.6h6.05V251.66a3,3,0,1,0-6.05,0v78.59h-46.4V251.66Zm46.4,89.67h-46.4V334h46.4Z"/><path class="cls-12" d="M157.22,251.66a3,3,0,1,0-6.05,0V387.6h6.05V347.38h46.4V387.6h6.06V251.66a3,3,0,0,0-6.06,0v78.59h-46.4V251.66Zm46.4,89.67h-46.4V334h46.4Z"/><path class="cls-8" d="M267.79,251.66H149.33a3.81,3.81,0,0,0-3.8,3.8h0a3.81,3.81,0,0,0,3.8,3.81H267.79a3.81,3.81,0,0,0,3.8-3.81h0A3.81,3.81,0,0,0,267.79,251.66Z"/><path class="cls-13" d="M272.1,247.85H144.29a3.82,3.82,0,0,0-3.81,3.81h0a3.81,3.81,0,0,0,3.81,3.8H272.1a3.81,3.81,0,0,0,3.8-3.8h0A3.82,3.82,0,0,0,272.1,247.85Z"/><path class="cls-14" d="M194.64,247.85H144.29a3.82,3.82,0,0,0-3.81,3.81h0a3.81,3.81,0,0,0,3.81,3.8h50.35a3.82,3.82,0,0,0,3.81-3.8h0A3.83,3.83,0,0,0,194.64,247.85Z"/><path class="cls-10" d="M268.62,149.14c11,2.7,33.14,7.13,40.18,16.17,4.59,5.9,5.24,13.05-2.37,13.05H267.78Z"/><path class="cls-10" d="M190.68,197.72l-14.85,13s-8.57-23.64-.11-44.32,40.63-22.24,53.89-23.49,30.19,35.46,30.19,35.46Z"/><path class="cls-8" d="M245.13,214.31s28.22,6.41,31.77,7.25,13.16,10.43,14.86,19.67,17.32,126.51,17.32,126.51-4,7-4.55,7.11-8.18-3.5-8.18-3.5S269.16,271.94,266,263.15s-2.32-15.3-11.93-15.3H225.21l-7.48-25.43,3-2.93c-3.26.16-5.82.18-6.25-.08-1.36-.84-22.81-8.69-22.81-8.69s15.38-4.6,16.74-5.13,23.49-2.35,23.49-2.35.05,6.07,1.15,7.38a7.49,7.49,0,0,0,3.45,1.84h0Z"/><path class="cls-10" d="M177.55,184.56c-.23,8-.49,16.38-1.77,20.75a18.28,18.28,0,0,1,.05,5.4l-.21.59a10,10,0,0,0,.33,1c3.54,2.7,7.29,2.81,11.61,4.44v-.58l-.18-.77L200,221.52c4.26-.44,31.36-2.18,38.13-8.72-.6-6.38,26.47-24.26,33.9-26Z"/><path class="cls-15" d="M305.88,369.68a3.47,3.47,0,0,1,4.13-1.89c2.93.81,20.3,10.37,23,11.55s5.57,5.68,3.43,8.26h-41.3c-2.44-1.46-4.79-6.53-2.27-15.34S294.78,372.71,305.88,369.68Z"/><path class="cls-16" d="M305.88,369.68a3.47,3.47,0,0,1,4.13-1.89c1.82.51,9.24,4.4,15.24,7.56-1.76,1.31-5.49,2.46-6.35,2.29C317.83,377.42,305.88,369.68,305.88,369.68Z"/><rect class="cls-17" x="291.27" y="382.91" width="47.07" height="4.67" rx="1.21"/><path class="cls-18" d="M184.37,247.8c-16.22,0-16.87-28.33-8.54-37.09A18.22,18.22,0,0,0,186.69,214c11-.12,36.83-6.29,44.72,4.23s10.77,28.19,6.2,53.89-15.85,99.56-15.85,99.56l-13-1.12s1.93-104.2,2.14-109.75-2.72-12.94-8.69-12.94S184.37,247.8,184.37,247.8Z"/><path class="cls-15" d="M219.09,370.47s-4.92-6.12-10.93-1.25a8.91,8.91,0,0,0-4.51,4.42c-1.23,3.1-3.55,4.5-4,7.89s.54,6.05,4.85,6.05h7c3.07,0,7.65.52,9.22-3.61s0-7.89.55-10S219.09,370.47,219.09,370.47Z"/><path class="cls-16" d="M219.09,370.47s-4.92-6.12-10.93-1.25a9.28,9.28,0,0,0-1.44.8c-.35,2.68-.64,5.54-.38,6.27.52,1.46,8.29,1.15,9.39.63.81-.39,2.68-4.35,3.57-6.34Z"/><rect class="cls-17" x="198.94" y="382.91" width="22.8" height="4.67" rx="1.21"/><path class="cls-11" d="M254.16,216.36c-.42.46-.84,1-1.25,1.49a22.32,22.32,0,0,0-4.59,7.79.38.38,0,0,0,.25.49.38.38,0,0,0,.49-.25c.14-.4.28-.79.44-1.17a.44.44,0,0,0,.16.1.39.39,0,0,0,.5-.25,21.14,21.14,0,0,1,3.35-6.22c.59-.65,1.17-1.22,1.72-1.73l-1.07-.25Zm2.31.53,1.37.31a23,23,0,0,0-2,2.18,20.85,20.85,0,0,0-3.35,6.21.4.4,0,0,1-.4.27c0,.13-.09.26-.14.4a.4.4,0,0,1-.49.25.42.42,0,0,1-.21-.16l0,.07a.39.39,0,0,1-.5.25.41.41,0,0,1-.25-.5,23.05,23.05,0,0,1,6-9.28Zm1.71.39,1.42.32a23.31,23.31,0,0,0-5.92,7.63c-.17.41-.32.83-.47,1.26a.41.41,0,0,1-.15.21l-.27.75a.39.39,0,1,1-.74-.25,19.34,19.34,0,0,1,.91-2.28,23.25,23.25,0,0,1,5.22-7.64Zm1.8.41,1,.24a24.49,24.49,0,0,0-3.3,3.49,20.89,20.89,0,0,0-3,5.76.41.41,0,0,1-.27.26l-.07.19a.38.38,0,0,1-.49.25.38.38,0,0,1-.25-.49A21.37,21.37,0,0,1,257.1,221a25.19,25.19,0,0,1,2.88-3.27Zm2.67.61a23.58,23.58,0,0,0-7.24,10.36.39.39,0,0,0,.75.24,22.56,22.56,0,0,1,7-10,25.54,25.54,0,0,0-2.92,3.17,21.55,21.55,0,0,0-3.65,6.67.39.39,0,0,0,.25.5h.07c0,.09-.07.19-.1.28h0a.38.38,0,0,0,.25.49.4.4,0,0,0,.5-.24l.12-.37h0v0l.12-.33v0c.09-.24.19-.47.28-.7h0c.05-.11.09-.23.14-.34h0l.15-.32v0h0l.15-.32h0l.15-.31,0,0,.15-.28,0-.06.14-.25,0-.07c0-.08.09-.16.14-.24l0-.08c0-.08.09-.15.13-.22l.06-.09.12-.21.08-.12.11-.17.07-.12.12-.18.08-.11.11-.17.09-.13.1-.13v0a21,21,0,0,0-2.2,4.62.39.39,0,0,0,.26.49h0q-.13.34-.24.69a.38.38,0,0,0,.25.49.38.38,0,0,0,.49-.25,1.07,1.07,0,0,0,.07-.19.38.38,0,0,0,.27-.25q.16-.48.33-.93a.41.41,0,0,0,.26.47.4.4,0,0,0,.5-.25,22.47,22.47,0,0,1,6.66-9.72l.17-.12-1.17-.27-.42.35.41-.35-3.38-.77Zm4.63,1a23.37,23.37,0,0,0-6.89,10.06.39.39,0,0,0,.25.5.38.38,0,0,0,.49-.25l.1-.27a.38.38,0,0,0,.24.22.39.39,0,0,0,.5-.25,22.38,22.38,0,0,1,6.65-9.7l-1.34-.31Zm1.68.38,3.34.77A22.93,22.93,0,0,0,264.68,231a.4.4,0,0,1-.5.25.39.39,0,0,1-.21-.17.39.39,0,0,1-.64-.4,22.49,22.49,0,0,1,5.18-8.43,22,22,0,0,0-5.42,8.56.39.39,0,0,1-.5.25.4.4,0,0,1-.25-.5l0-.1a.39.39,0,0,1-.32,0,.41.41,0,0,1-.25-.5A23.57,23.57,0,0,1,269,219.73Zm3.56.82,1,.22a23.1,23.1,0,0,0-8,10.82.4.4,0,1,1-.75-.25A23.7,23.7,0,0,1,272.52,220.55Z"/><path class="cls-11" d="M233,299.73a30,30,0,0,0-13-.08.59.59,0,0,0-.42.54.33.33,0,0,0,.43.31c.46-.13.9-.23,1.34-.32a.54.54,0,0,0-.05.22.33.33,0,0,0,.43.31,21.62,21.62,0,0,1,7.48-.69,21,21,0,0,1,3.62.93l.2-1.22Zm-.39,2.41-.22,1.36a20.58,20.58,0,0,0-3.45-.73,21.57,21.57,0,0,0-7.47.7.33.33,0,0,1-.42-.21l-.44.12a.32.32,0,0,1-.43-.31.6.6,0,0,1,.08-.29l-.07,0a.31.31,0,0,1-.43-.31.59.59,0,0,1,.41-.54,22.25,22.25,0,0,1,12.44.19Zm-.27,1.68a22.18,22.18,0,0,0-10-.28,24.54,24.54,0,0,0-2.62.55.58.58,0,0,0-.42.54.33.33,0,0,0,.43.31l.85-.21a.38.38,0,0,0,.26,0q.74-.19,1.44-.33a21.27,21.27,0,0,1,9.84.84l.23-1.43Zm-.29,1.8-.16,1a20.86,20.86,0,0,0-4.33-.82,21.54,21.54,0,0,0-6.89.74.33.33,0,0,1-.35-.1l-.23.06a.33.33,0,0,1-.43-.31.58.58,0,0,1,.42-.54,22.13,22.13,0,0,1,7.73-.72,22.4,22.4,0,0,1,4.24.65Zm-.42,2.63-.14.92a21.37,21.37,0,0,0-12.06-.19.32.32,0,0,1-.42-.32.59.59,0,0,1,.41-.54,22.23,22.23,0,0,1,12.21.13Zm-.15.95a23.51,23.51,0,0,0-3.67-.62,22.45,22.45,0,0,0-8,.7.57.57,0,0,0-.41.54.22.22,0,0,0,0,.08h0l-.32.08h0a.57.57,0,0,0-.41.54.32.32,0,0,0,.43.31l.41-.11h0l.38-.09h0l.8-.17h0l.4-.07h0l.38-.06h0l.38-.05h0l.37-.05h0l.33,0h.09l.3,0h.08l.29,0h2.17a22.58,22.58,0,0,0-5.45.78.59.59,0,0,0-.41.54h0l-.78.19a.57.57,0,0,0-.41.54.32.32,0,0,0,.43.31l.21-.06a.33.33,0,0,0,.36.1c.35-.1.71-.18,1.05-.26a.61.61,0,0,0-.38.53.32.32,0,0,0,.43.31,21.47,21.47,0,0,1,10.26-.28l.57-3.6Zm-.59,3.71-.21,1.36a21.72,21.72,0,0,0-9.66.41.33.33,0,0,1-.43-.31.56.56,0,0,1,.15-.37l-.31.08a.33.33,0,0,1-.43-.31.59.59,0,0,1,.42-.54,22.28,22.28,0,0,1,10.47-.32Zm-.26,1.67a22.23,22.23,0,0,0-10.32.35.57.57,0,0,0-.41.54.32.32,0,0,0,.14.27l-.12,0a.6.6,0,0,0-.41.54.32.32,0,0,0,.43.31,21.47,21.47,0,0,1,10.4-.24l.29-1.8Zm-.29,1.8-.23,1.47a21.41,21.41,0,0,0-9.8.37.33.33,0,0,1-.43-.31.52.52,0,0,1,.09-.29.33.33,0,0,1-.23-.32.59.59,0,0,1,.41-.54,22.42,22.42,0,0,1,10.19-.38Zm-.27,1.71a22.21,22.21,0,0,0-10.07.4.58.58,0,0,0-.41.54.32.32,0,0,0,.43.31,21.43,21.43,0,0,1,9.91-.35Z"/><path class="cls-11" d="M292.91,248.73a21.76,21.76,0,0,0-5.49-.16,22.48,22.48,0,0,0-9.25,2.19.58.58,0,0,0-.31.61.31.31,0,0,0,.47.23c.43-.2.85-.39,1.27-.56a.45.45,0,0,0,0,.23.32.32,0,0,0,.47.23,21.61,21.61,0,0,1,7.23-2,20.31,20.31,0,0,1,5.83.74l-.21-1.49Zm.38,2.63.19,1.38a20.82,20.82,0,0,0-5.93-.51,21.85,21.85,0,0,0-7.23,2,.32.32,0,0,1-.44-.12l-.42.19a.32.32,0,0,1-.48-.23.63.63,0,0,1,0-.3l-.07,0a.32.32,0,0,1-.48-.23.56.56,0,0,1,.31-.6,22,22,0,0,1,14.51-1.64Zm.23,1.63a22.05,22.05,0,0,0-12.33,1.18,24.09,24.09,0,0,0-2.49,1,.58.58,0,0,0-.31.61.32.32,0,0,0,.48.22l.8-.36a.35.35,0,0,0,.26,0c.45-.21.91-.41,1.35-.59a21,21,0,0,1,12.48-.36l-.24-1.68Zm.26,1.85a21.83,21.83,0,0,0-6.95-.25,22.19,22.19,0,0,0-7.48,2.1.58.58,0,0,0-.31.6.32.32,0,0,0,.48.23l.21-.1a.33.33,0,0,0,.37,0,21.5,21.5,0,0,1,6.64-1.95A20.81,20.81,0,0,1,294,256l-.17-1.2Zm.4,2.86.28,2c-.32-.08-.71-.18-1.15-.27h.06l.06,0h.12l.05,0,.11,0h0l.09,0h.64l.19,1.37a19.15,19.15,0,0,0-2.08-.39,18.66,18.66,0,0,1,2.08.41l.35,2.51a21.38,21.38,0,0,0-13.11,1.77.32.32,0,0,1-.48-.23.57.57,0,0,1,.08-.38l-.29.13a.31.31,0,0,1-.47-.23.56.56,0,0,1,.31-.6,22.12,22.12,0,0,1,13.06-1.93l-.84-.21a21.44,21.44,0,0,0-12,1.95.32.32,0,0,1-.48-.23A.6.6,0,0,1,281,263l-1,.44a.33.33,0,0,1-.37,0l-.2.1a.32.32,0,0,1-.48-.23.61.61,0,0,1,.31-.61l.73-.33h0a.59.59,0,0,1,.31-.6,22.57,22.57,0,0,1,5.22-1.75h0l-.17,0-.16,0-.21,0-.14,0-.22,0-.14,0-.21.05-.14,0-.25.06-.11,0-.26.06-.09,0-.29.07-.08,0-.29.08-.08,0-.32.1h0l-.36.11h0l-.36.12h0l-.36.13h0l-.38.14h0l-.76.31,0,0-.36.15h0l-.38.18a.32.32,0,0,1-.48-.23.59.59,0,0,1,.31-.6h0l.3-.14h0l0-.07a.61.61,0,0,1,.31-.61,22.72,22.72,0,0,1,7.78-2.12,22.12,22.12,0,0,1,4.32,0A21.4,21.4,0,0,0,279.31,260a.32.32,0,0,1-.48-.22.6.6,0,0,1,.31-.61,22,22,0,0,1,15-1.5Zm.87,6.25a22.05,22.05,0,0,0-13.81,1.79.56.56,0,0,0-.31.6.32.32,0,0,0,.18.25l-.11.05a.59.59,0,0,0-.31.6.32.32,0,0,0,.48.23,21.52,21.52,0,0,1,10.36-2.09,22.28,22.28,0,0,0-10.12,2.19.56.56,0,0,0-.31.6.31.31,0,0,0,.28.27.55.55,0,0,0,0,.31.31.31,0,0,0,.47.23,21.29,21.29,0,0,1,13.7-1.65l-.47-3.38Zm.5,3.59.14,1a21.26,21.26,0,0,0-13.95,1.6.32.32,0,0,1-.48-.23.58.58,0,0,1,.31-.61A22.12,22.12,0,0,1,295.55,267.54Z"/><path class="cls-11" d="M208.09,195.91a5.71,5.71,0,1,0-11.4.76c.82,12.1,2.14,25.55,4.09,40.47H97c2.06-14.84,3.69-28.21,5-40.25a5.72,5.72,0,0,0-11.37-1.2c-2.55,23.77-6.45,52.75-12.26,88-5,30-11.27,64.43-19.3,104H70.7c7.88-38.83,14.08-72.67,18.94-102.12q3.24-19.71,5.74-36.88h107q2.49,17.25,6.1,37c5.4,29.47,12.83,63.28,22.85,102h11.79c-10.32-39.64-17.92-74.11-23.42-104.06-2.7-14.76-4.89-28.41-6.65-41.05a4.49,4.49,0,0,0-.11-.82C210.56,224.6,209,209.41,208.09,195.91Z"/><rect class="cls-19" x="187.31" y="182.6" width="271.3" height="23.42" rx="5.51"/><path class="cls-8" d="M453.08,182.6H135.35a5.55,5.55,0,0,0-5.53,5.52v7.34h328.8v-7.34A5.55,5.55,0,0,0,453.08,182.6Z"/><path class="cls-13" d="M458.59,178.36H187.34a6,6,0,0,0-6,6h0a6,6,0,0,0,6,6H458.59a6,6,0,0,0,6-6h0A6,6,0,0,0,458.59,178.36Z"/><rect class="cls-20" x="84.8" y="182.6" width="130.4" height="23.42" rx="5.51"/><path class="cls-11" d="M207.05,182.6H93c-4.48,0-8.15,2.49-8.15,5.52v7.34H215.2v-7.34C215.2,185.09,211.53,182.6,207.05,182.6Z"/><path class="cls-14" d="M215.2,178.36H81.54a6,6,0,0,0-6,6h0a6,6,0,0,0,6,6H215.2a6,6,0,0,0,6-6h0A6,6,0,0,0,215.2,178.36Z"/><path class="cls-21" d="M279.27,178.36s-5.78-6.58-4.37-14.34,1.55-22.71-6.63-26.94-18.19-3.65-22.57,2.4c0,0-2.33-3.32-4.94-3.18s-.42,4.31.21,4.8c-26.78-8.32-2.89,31.76-21.86,37.26Z"/><path class="cls-8" d="M279.27,178.36s-5.78-6.58-4.37-14.34c.19-1,.36-2.22.48-3.49-8.85,3.17-29.63,9.16-39.1-.38A31.3,31.3,0,0,1,227.83,145c-2.46,8.23,2.52,24.28-4.44,30.94,2.22.61,4.73,1.36,7.55,2.39Z"/><path class="cls-22" d="M307.85,178.36c5.39-4.16,2.24-18.27-10.85-14.43-9.3,2.73-25.07,8.25-27,8.66-2.66.57-8.61,0-10.12,0a5.76,5.76,0,0,0-5.36,5.77h53.35Z"/><path class="cls-22" d="M181.24,178.36a6.89,6.89,0,0,1-3.52-6.78c.42-4.87,6.26-9.7,10.66-10.18s52.22,10.21,56.7,10.81,14.52,0,17.07,0,9,1.62,9,6.15H181.24Z"/><path class="cls-23" d="M314.36,140s-.71-2.58-2.88-2.69-3,2.58-2.36,2.91S314.36,140,314.36,140Z"/><path class="cls-23" d="M312.48,144.62l.59-.12h0l2-.41c-2.4,6.59-9.12,5.64-6.47.56l3.31-.68v.34a.34.34,0,0,0,.45.33Z"/><path class="cls-3" d="M415.85,81.64H321.66a6.12,6.12,0,0,0-5.69,4.7L302.7,150.12a3.72,3.72,0,0,0,3.72,4.7h94.2a6.13,6.13,0,0,0,5.68-4.7l13.27-63.78A3.71,3.71,0,0,0,415.85,81.64Z"/><path class="cls-24" d="M415.85,81.64H324.74a6.11,6.11,0,0,0-5.68,4.7l-13.27,63.78a3.71,3.71,0,0,0,3.72,4.7h91.11a6.13,6.13,0,0,0,5.68-4.7l13.27-63.78A3.71,3.71,0,0,0,415.85,81.64Z"/><path class="cls-25" d="M340.83,154.82h23.09a8.21,8.21,0,0,0,.65-1.7c0-.91-5.3-16.79-13-19.28l-4.49-.11Z"/><path class="cls-26" d="M407.14,126.07H315.66a2.37,2.37,0,0,0-2.2,1.82h0a1.43,1.43,0,0,0,1.44,1.82h91.48a2.36,2.36,0,0,0,2.21-1.82h0A1.44,1.44,0,0,0,407.14,126.07Z"/><path class="cls-26" d="M405,131.62H315.54a3.71,3.71,0,0,0-3.45,2.85L309,149.36a2.26,2.26,0,0,0,2.26,2.85h89.42a3.72,3.72,0,0,0,3.45-2.85l3.1-14.89A2.26,2.26,0,0,0,405,131.62Z"/><path class="cls-25" d="M341.61,152.21h22.74c-1.08-3.59-6-16.18-12.77-18.37l-4.49-.11Z"/><path class="cls-25" d="M404.24,96.47H388.71a2.26,2.26,0,0,0-2.1,1.74l-4.68,22.49a1.38,1.38,0,0,0,1.38,1.75h15.52a2.28,2.28,0,0,0,2.11-1.75l4.68-22.49A1.37,1.37,0,0,0,404.24,96.47Z"/><path class="cls-26" d="M406.3,96.47H390.77a2.25,2.25,0,0,0-2.1,1.74L384,120.7a1.38,1.38,0,0,0,1.38,1.75h15.52a2.25,2.25,0,0,0,2.1-1.75l4.69-22.49A1.37,1.37,0,0,0,406.3,96.47Z"/><path class="cls-25" d="M402.35,109.46h0a1.2,1.2,0,0,0-1.12.93l-1.63,7.8a.74.74,0,0,0,.74.93h0a1.21,1.21,0,0,0,1.12-.93l1.62-7.8A.73.73,0,0,0,402.35,109.46Z"/><path class="cls-25" d="M398,109.46h0a1.21,1.21,0,0,0-1.12.93l-1.62,7.8a.73.73,0,0,0,.73.93h0a1.22,1.22,0,0,0,1.13-.93l1.62-7.8A.74.74,0,0,0,398,109.46Z"/><path class="cls-25" d="M393.58,109.46h0a1.2,1.2,0,0,0-1.12.93l-1.63,7.8a.74.74,0,0,0,.74.93h0a1.21,1.21,0,0,0,1.12-.93l1.63-7.8A.74.74,0,0,0,393.58,109.46Z"/><path class="cls-25" d="M389.2,109.46h0a1.21,1.21,0,0,0-1.13.93l-1.62,7.8a.73.73,0,0,0,.73.93h0a1.21,1.21,0,0,0,1.13-.93l1.62-7.8A.74.74,0,0,0,389.2,109.46Z"/><path class="cls-26" d="M415.22,87.26H323.74a2.37,2.37,0,0,0-2.2,1.82h0A1.44,1.44,0,0,0,323,90.9h91.48a2.36,2.36,0,0,0,2.2-1.82h0A1.44,1.44,0,0,0,415.22,87.26Z"/><path class="cls-25" d="M404.1,133.28H315.7a.93.93,0,0,0-.86.71h0a.57.57,0,0,0,.57.71H403.8a.94.94,0,0,0,.87-.71h0a.57.57,0,0,0-.57-.71Zm-3.17,15.24h-88.4a.92.92,0,0,0-.86.72h0a.56.56,0,0,0,.56.71h88.4a.93.93,0,0,0,.86-.71h0a.57.57,0,0,0-.56-.72Zm.63-3.05H313.17a.94.94,0,0,0-.87.72h0a.57.57,0,0,0,.57.71h88.4a.93.93,0,0,0,.86-.71h0a.57.57,0,0,0-.57-.72Zm.64-3.05H313.8a.92.92,0,0,0-.86.72h0a.56.56,0,0,0,.56.71h88.4a.93.93,0,0,0,.86-.71h0a.57.57,0,0,0-.56-.72Zm.63-3H314.44a.93.93,0,0,0-.87.71h0a.57.57,0,0,0,.57.71h88.4a.94.94,0,0,0,.86-.71h0a.57.57,0,0,0-.57-.71Zm.64-3h-88.4a.93.93,0,0,0-.86.71h0a.56.56,0,0,0,.56.71h88.4A.93.93,0,0,0,404,137h0A.56.56,0,0,0,403.47,136.33Z"/><path class="cls-27" d="M346.8,134.7h6.62a8.28,8.28,0,0,0-1.84-.86l-4.49-.11-.29,1Zm-.48,1.63-.42,1.42h10.94c-.44-.51-.89-1-1.35-1.42Zm-.9,3L345,140.8h14.09c-.32-.49-.64-1-1-1.42Zm-.91,3-.42,1.43h16.75c-.25-.47-.51-.95-.78-1.43Zm-.9,3.05-.43,1.43h19.14l-.66-1.43Zm-.91,3.05-.42,1.43h21.29c-.16-.45-.35-.92-.56-1.43Z"/><path class="cls-25" d="M326.79,107.87h-1.61a1.39,1.39,0,0,0-1.28,1.06l-1,4.66a.83.83,0,0,0,.83,1h1.61a1.37,1.37,0,0,0,1.28-1l1-4.66A.84.84,0,0,0,326.79,107.87Z"/><path class="cls-26" d="M329.57,97.87h-3a2.58,2.58,0,0,0-2.39,2l-1.81,8.71a1.56,1.56,0,0,0,1.57,2h3a2.58,2.58,0,0,0,2.39-2l1.81-8.71A1.56,1.56,0,0,0,329.57,97.87Z"/><path class="cls-26" d="M380.35,94.78H340.28a2,2,0,0,0-1.82,1.51l-5,24.07a1.19,1.19,0,0,0,1.19,1.51h40.08a2,2,0,0,0,1.81-1.51l5-24.07A1.19,1.19,0,0,0,380.35,94.78Z"/><path class="cls-3" d="M377.49,98.27H356a1,1,0,0,0-1,.79h0a.63.63,0,0,0,.63.79h21.54a1,1,0,0,0,1-.79h0A.63.63,0,0,0,377.49,98.27Z"/><path class="cls-25" d="M376.66,102.23h-34a1,1,0,0,0-1,.79h0a.63.63,0,0,0,.63.79h34a1,1,0,0,0,1-.79h0A.62.62,0,0,0,376.66,102.23Z"/><path class="cls-25" d="M375.83,106.27h-34a1,1,0,0,0-1,.79h0a.63.63,0,0,0,.63.79h34a1,1,0,0,0,1-.79h0A.62.62,0,0,0,375.83,106.27Z"/><path class="cls-25" d="M375,110.31H341a1,1,0,0,0-.95.79h0a.62.62,0,0,0,.62.79h34a1,1,0,0,0,1-.79h0A.62.62,0,0,0,375,110.31Z"/><path class="cls-25" d="M374.14,114.35h-34a1,1,0,0,0-1,.79h0a.62.62,0,0,0,.62.79h34a1,1,0,0,0,1-.79h0A.62.62,0,0,0,374.14,114.35Z"/><path class="cls-25" d="M373.3,118.38h-34a1,1,0,0,0-.95.8h0a.62.62,0,0,0,.62.79h34a1,1,0,0,0,1-.79h0A.63.63,0,0,0,373.3,118.38Z"/><path class="cls-25" d="M343.51,98.27H352a.62.62,0,0,1,.62.79h0a1,1,0,0,1-.95.79h-8.46a.63.63,0,0,1-.63-.79h0A1,1,0,0,1,343.51,98.27Z"/><path class="cls-25" d="M350.46,134.32c-.75,0-1.92.19-1.92-.56a1.34,1.34,0,0,1,1.35-1.34h26.73a5.27,5.27,0,0,1,5.54,5.33c.12,1.73.85,7.14,1.67,13,.8,5.68,1.74,12.07,2.27,15.63a20.07,20.07,0,0,1,.23,3A10.9,10.9,0,0,1,385,175a6.81,6.81,0,0,1-5.12,3.29,11,11,0,0,1-1.55.11H349.75A1.35,1.35,0,0,1,348.4,177c0-.74,1.24-.44,2-.44l4.82-.91a7,7,0,0,0,1.16-.08,4.22,4.22,0,0,0,3.21-2,8.4,8.4,0,0,0,.93-4.23,19,19,0,0,0-.2-2.6c-.5-3.39-1.72-9.6-2.58-15.66-.83-5.9-1.56-11.37-1.69-13.16a2.7,2.7,0,0,0-2.76-2.83h-.14Z"/><path class="cls-3" d="M348.44,135.11a1.35,1.35,0,1,1,0-2.69h2.73a5.27,5.27,0,0,1,5.55,5.33c.11,1.73.84,7.14,1.66,13,.81,5.68,1.75,12.07,2.28,15.63a21.5,21.5,0,0,1,.23,3,10.9,10.9,0,0,1-1.32,5.61,6.85,6.85,0,0,1-5.12,3.29,11,11,0,0,1-1.55.11h-7.32a1.35,1.35,0,0,1,0-2.7h7.32a7,7,0,0,0,1.16-.08,4.2,4.2,0,0,0,3.2-2,8.29,8.29,0,0,0,.93-4.23,17.51,17.51,0,0,0-.2-2.6c-.5-3.39-1.41-9.6-2.27-15.66-.83-5.9-1.56-11.37-1.69-13.16a2.7,2.7,0,0,0-2.76-2.83h-2.83Z"/><path class="cls-28" d="M259.6,68.66a20.18,20.18,0,0,0,19.63,15.86h28v24a7.36,7.36,0,0,1-7.34,7.34h-49L238.4,128.37a.82.82,0,0,1-1.4-.58V76a7.36,7.36,0,0,1,7.34-7.34Z"/><path class="cls-29" d="M298.1,66.52H242.51a7.37,7.37,0,0,0-7.35,7.34v51.79a.82.82,0,0,0,.51.76.8.8,0,0,0,.89-.18l12.51-12.51h49a7.36,7.36,0,0,0,7.34-7.34V73.86A7.37,7.37,0,0,0,298.1,66.52Z"/><text class="cls-30" transform="translate(243.23 99.13)"><tspan class="cls-31">40</tspan><tspan x="26.56" y="0">4 !</tspan></text><path class="cls-32" d="M101.27,266.9c14.65-7.78,18.37,9.16,12.67,23.19S79,351.31,77.49,370c-.59,7.26-1.94,6.47-3.1,1.38C68.61,346,81.1,277.62,101.27,266.9Z"/><path class="cls-33" d="M70.25,202.62c-16.8-15.12-27.31,6-24.4,26.47s26,92.45,21.82,117.69c-1.61,9.78.44,9.18,3.65,2.84C87.32,318,93.37,223.44,70.25,202.62Z"/><path class="cls-34" d="M67.32,353.79c.36.94,1.16.48,2.23-1.08C87.06,294.38,59.78,207.24,59.69,207a.9.9,0,0,0-1.13-.6.91.91,0,0,0-.6,1.14C58,207.78,85.69,296.11,67.32,353.79Z"/><path class="cls-35" d="M33.55,251.08C17.27,244,14.72,262.38,22,276.87s42.36,62.4,45.54,82.24c1.24,7.68,2.62,6.72,3.43,1.2C75,332.77,56,260.83,33.55,251.08Z"/><path class="cls-36" d="M69,364.42c.5.6,1,.06,1.39-1.37-1.48-47.8-43.48-105.92-43.62-106.11a.71.71,0,1,0-1.16.83C25.75,258,68.33,316.88,69,364.42Z"/><polygon class="cls-11" points="56.48 355.01 87.75 355.01 95.91 362.38 89.24 388.07 72.11 388.07 54.98 388.07 48.31 362.38 56.48 355.01"/><rect class="cls-37" x="45.72" y="344.27" width="52.78" height="16.93" rx="2.59"/><polygon class="cls-7" points="95.91 362.38 94.54 367.66 49.68 367.66 48.31 362.38 95.91 362.38"/><path class="cls-28" d="M135.11,20.57A6.3,6.3,0,1,1,133.27,25a6.26,6.26,0,0,1,1.84-4.45Zm1.36-6.23A11,11,0,0,0,131.84,17a.38.38,0,0,1-.46.05l-2.93-1.69h0a.78.78,0,0,0-.54-.06.74.74,0,0,0-.44.34v0l-2.06,3.56a.73.73,0,0,0,.27,1l0,0,2.9,1.67a.4.4,0,0,1,.18.43h0a9.47,9.47,0,0,0-.24,1.33,10,10,0,0,0-.08,1.35,10.14,10.14,0,0,0,.08,1.36,11.55,11.55,0,0,0,.24,1.33.38.38,0,0,1-.2.44l-2.9,1.67h0a.74.74,0,0,0-.34.44.71.71,0,0,0,.07.55l2.07,3.59h0a.73.73,0,0,0,.44.33.71.71,0,0,0,.55-.07h0L131.38,33a.39.39,0,0,1,.46.06A10.75,10.75,0,0,0,134,34.66a11.17,11.17,0,0,0,2.48,1.06.38.38,0,0,1,.29.37v3.37a.72.72,0,0,0,.72.72h4.14a.72.72,0,0,0,.72-.72V36.09a.39.39,0,0,1,.3-.38,11.26,11.26,0,0,0,2.47-1.05A11,11,0,0,0,147.28,33a.38.38,0,0,1,.48,0l2.9,1.67a.71.71,0,0,0,.55.07.73.73,0,0,0,.44-.33l0,0,2.05-3.57h0a.71.71,0,0,0,.07-.55.69.69,0,0,0-.33-.44l-2.92-1.69a.38.38,0,0,1-.18-.42h0a11.56,11.56,0,0,0,.25-1.33,12.12,12.12,0,0,0,.08-1.36,11.94,11.94,0,0,0-.08-1.35,11.17,11.17,0,0,0-.25-1.33.4.4,0,0,1,.21-.44l2.9-1.68a.67.67,0,0,0,.33-.44.72.72,0,0,0-.07-.55v0l-2.06-3.56h0a.74.74,0,0,0-.44-.34.82.82,0,0,0-.55.07h0l-2.92,1.69a.39.39,0,0,1-.47-.06,11.12,11.12,0,0,0-4.64-2.68.38.38,0,0,1-.28-.37V10.59a.72.72,0,0,0-.21-.51.69.69,0,0,0-.51-.22h-4.14a.69.69,0,0,0-.51.22.72.72,0,0,0-.21.51V14A.4.4,0,0,1,136.47,14.34Z"/><path class="cls-28" d="M176.82,50.33a15.1,15.1,0,0,1,4.82-3.22A14.84,14.84,0,0,1,201,66.48a14.67,14.67,0,0,1-3.22,4.82,14.81,14.81,0,0,1-24.18-4.82,14.77,14.77,0,0,1,0-11.33,14.91,14.91,0,0,1,3.21-4.82Zm5.34-1.95A13.47,13.47,0,0,0,174.87,66a13.41,13.41,0,0,0,2.92,4.37,13.62,13.62,0,0,0,4.37,2.92,13.46,13.46,0,0,0,17.58-17.58,13.62,13.62,0,0,0-2.92-4.37,13.47,13.47,0,0,0-14.66-2.92Zm-1.64-10.91a23.93,23.93,0,0,0-2.73,1,26.84,26.84,0,0,0-2.63,1.31,27.11,27.11,0,0,0-2.47,1.64,26.12,26.12,0,0,0-2.26,1.93,1.48,1.48,0,0,1-.88.42,1.51,1.51,0,0,1-1-.19c-2.18-1.26-4.47-2.51-6.6-3.82a.9.9,0,0,0-.32-.09.87.87,0,0,0-.36,0,1.09,1.09,0,0,0-.34.17,1.05,1.05,0,0,0-.24.27c-1.58,2.4-3.18,5.51-4.65,8a.9.9,0,0,0-.11.34,1,1,0,0,0,0,.38,1,1,0,0,0,.17.33.78.78,0,0,0,.27.24c2,1.3,4.48,2.59,6.56,3.79a1.55,1.55,0,0,1,.65.74,1.19,1.19,0,0,1,.1.32l.14.05-.16.61c-.11.48-.22,1-.31,1.44s-.16,1-.22,1.46-.1,1-.13,1.48-.05,1-.05,1.49,0,1,.05,1.49.07,1,.13,1.47.14,1,.22,1.46.2,1,.31,1.45a1.55,1.55,0,0,1-.09,1,1.52,1.52,0,0,1-.71.73l-5.8,3.35h0l-.69.4a.9.9,0,0,0-.27.24,1,1,0,0,0-.17.34.93.93,0,0,0,0,.37.85.85,0,0,0,.11.34l4.3,7.45h0l.35.6a1.31,1.31,0,0,0,.24.28,1.06,1.06,0,0,0,.34.16.88.88,0,0,0,.71-.09c2.08-1.31,4.43-2.55,6.57-3.79a1.53,1.53,0,0,1,1-.2,1.57,1.57,0,0,1,.89.42h0a24.48,24.48,0,0,0,2.26,1.93,25.17,25.17,0,0,0,2.47,1.64,24.22,24.22,0,0,0,2.65,1.32,22.83,22.83,0,0,0,2.78,1,1.61,1.61,0,0,1,.81.56,1.55,1.55,0,0,1,.32.94v7.58a.84.84,0,0,0,.07.35.9.9,0,0,0,.21.31.75.75,0,0,0,.3.2.86.86,0,0,0,.36.07H192a.81.81,0,0,0,.35-.07.79.79,0,0,0,.31-.2,1.06,1.06,0,0,0,.21-.31,1,1,0,0,0,.07-.35V85.68a1.55,1.55,0,0,1,1.19-1.52,23.66,23.66,0,0,0,5.36-2.28,24,24,0,0,0,2.47-1.64,23.23,23.23,0,0,0,2.26-1.93,1.56,1.56,0,0,1,.94-.42,1.54,1.54,0,0,1,1,.25l6.49,3.74a1.16,1.16,0,0,0,.34.12,1.22,1.22,0,0,0,.38,0,1,1,0,0,0,.33-.16.92.92,0,0,0,.24-.28c1.54-2.69,3.11-5.36,4.65-8a.87.87,0,0,0,.12-.34,1.16,1.16,0,0,0,0-.37,1,1,0,0,0-.16-.34.78.78,0,0,0-.27-.24l-6.56-3.79a1.5,1.5,0,0,1-.66-.73,2.41,2.41,0,0,1-.08-.25l-.17,0,.17-.69c.12-.48.22-1,.31-1.44s.16-1,.22-1.47.11-1,.14-1.47,0-1,0-1.49,0-1,0-1.49-.08-1-.14-1.48-.13-1-.22-1.46-.19-1-.31-1.44a1.57,1.57,0,0,1,.1-1,1.53,1.53,0,0,1,.7-.72l6.5-3.76a.78.78,0,0,0,.27-.24.92.92,0,0,0,.16-.33,1.16,1.16,0,0,0,0-.37.91.91,0,0,0-.12-.35c-1.58-2.36-3.17-5.51-4.65-8a.78.78,0,0,0-.24-.27,1,1,0,0,0-.33-.17.94.94,0,0,0-.37,0,.89.89,0,0,0-.35.11L206,43.55a1.48,1.48,0,0,1-1,.19,1.51,1.51,0,0,1-.89-.44,24.14,24.14,0,0,0-2.25-1.91,24.45,24.45,0,0,0-2.46-1.64,24.93,24.93,0,0,0-2.64-1.31,26.18,26.18,0,0,0-2.78-1,1.49,1.49,0,0,1-.82-.56,1.53,1.53,0,0,1-.31-.93V28.38a1,1,0,0,0-.07-.36,1,1,0,0,0-.21-.3,1,1,0,0,0-.31-.21.81.81,0,0,0-.35-.07h-9.3a.86.86,0,0,0-.36.07,1.06,1.06,0,0,0-.31.21.92.92,0,0,0-.27.66V36a1.57,1.57,0,0,1-1.2,1.51Zm-3.27-.29a25.92,25.92,0,0,0-5.38,3.12,27.25,27.25,0,0,0-2.39,2,.12.12,0,0,1-.1.05.14.14,0,0,1-.11,0c-2.21-1.27-4.42-2.54-6.63-3.83a2.44,2.44,0,0,0-.83-.26,2.32,2.32,0,0,0-.87.07,2.28,2.28,0,0,0-.81.4,2.24,2.24,0,0,0-.59.67c-1.6,2.6-3.12,5.4-4.65,8.05a2.31,2.31,0,0,0-.29.86,2.35,2.35,0,0,0,1.13,2.31c2.12,1.3,4.41,2.54,6.57,3.79a.18.18,0,0,1,.07.08.17.17,0,0,1,0,.12l-.15.61h0c-.07.3-.13.6-.18.91-.1.53-.18,1-.24,1.55s-.11,1-.14,1.56-.05,1.06-.05,1.57,0,1,.05,1.57.08,1,.14,1.55.14,1,.24,1.55.2,1,.32,1.52a.16.16,0,0,1,0,.12.18.18,0,0,1-.08.09c-2.41,1.29-4.86,2.8-7.25,4.18l.09.11-.07.09a2.32,2.32,0,0,0-.46,1.71,2.25,2.25,0,0,0,.29.86l5,8.65.1,0,.15.13a2.37,2.37,0,0,0,1.71.45,2.08,2.08,0,0,0,.83-.27c2.19-1.16,4.44-2.56,6.6-3.81a.2.2,0,0,1,.11,0,.22.22,0,0,1,.11,0,24.87,24.87,0,0,0,5,3.76,26,26,0,0,0,2.79,1.4,27.72,27.72,0,0,0,2.94,1,.18.18,0,0,1,.1.07.14.14,0,0,1,0,.11v7.58a2.43,2.43,0,0,0,.18.88,2.27,2.27,0,0,0,.51.75,2.29,2.29,0,0,0,.75.5,2.16,2.16,0,0,0,.88.18H192a2.16,2.16,0,0,0,.88-.18,2.3,2.3,0,0,0,1.25-1.25,2.23,2.23,0,0,0,.18-.88V85.68a.16.16,0,0,1,0-.12.17.17,0,0,1,.1-.06h0a24.57,24.57,0,0,0,2.92-1,25.74,25.74,0,0,0,2.78-1.39,25.91,25.91,0,0,0,5-3.76.16.16,0,0,1,.11,0l.12,0,6.56,3.79a2.36,2.36,0,0,0,2.56-.17,2.5,2.5,0,0,0,.59-.66c1.72-2.77,3.35-5.81,5-8.66l-.09,0c0-.07,0-.15,0-.22a2.32,2.32,0,0,0-.46-1.71,2.15,2.15,0,0,0-.68-.59l-6.56-3.79a.18.18,0,0,1-.08-.09.25.25,0,0,1,0-.12l.17-.69h0c.06-.27.12-.55.17-.83.09-.52.17-1,.24-1.55s.1-1,.14-1.55,0-1.06,0-1.57,0-1,0-1.57-.08-1.06-.14-1.56-.14-1-.24-1.55-.21-1-.33-1.52a.25.25,0,0,1,0-.12.2.2,0,0,1,.09-.09l6.55-3.78a2.2,2.2,0,0,0,.68-.6,2.32,2.32,0,0,0,.46-1.71,2.33,2.33,0,0,0-.28-.83c-1.56-2.9-3.35-5.82-5-8.68l-.09.06-.16-.13a2.32,2.32,0,0,0-1.71-.46,2.43,2.43,0,0,0-.85.28l-.48.28h0l-6.09,3.51a.17.17,0,0,1-.12,0,.14.14,0,0,1-.1-.05h0a24.48,24.48,0,0,0-2.38-2,25.84,25.84,0,0,0-2.59-1.72,23.53,23.53,0,0,0-2.8-1.39,24.42,24.42,0,0,0-2.94-1,.15.15,0,0,1-.09-.06.15.15,0,0,1,0-.11V28.38a2.16,2.16,0,0,0-.18-.88,2.45,2.45,0,0,0-.5-.76,2.52,2.52,0,0,0-.75-.5,2.34,2.34,0,0,0-.88-.17h-9.3a2.34,2.34,0,0,0-.88.17,2.45,2.45,0,0,0-.76.5,2.36,2.36,0,0,0-.68,1.64V36a.2.2,0,0,1,0,.11.23.23,0,0,1-.1.07h0A27.37,27.37,0,0,0,177.25,37.18Z"/><path class="cls-28" d="M469,126.16a6.28,6.28,0,1,1-1.85,4.45,6.25,6.25,0,0,1,1.85-4.45Zm1.36-6.24a11.17,11.17,0,0,0-4.64,2.68.36.36,0,0,1-.46.06L462.38,121h0a.72.72,0,0,0-1,.28v0l-2.06,3.56a.73.73,0,0,0,.27,1l0,0,2.9,1.67a.39.39,0,0,1,.18.43h0a11.39,11.39,0,0,0-.25,1.32,11.6,11.6,0,0,0,0,2.72,12,12,0,0,0,.25,1.33.38.38,0,0,1-.2.43l-2.9,1.68h0a.73.73,0,0,0-.27,1l2.07,3.58h0a.73.73,0,0,0,1,.27h0l2.91-1.68a.36.36,0,0,1,.45.06,11.62,11.62,0,0,0,2.17,1.63,11.14,11.14,0,0,0,2.48,1.05.4.4,0,0,1,.28.38v3.37a.73.73,0,0,0,.22.51.72.72,0,0,0,.51.21h4.14a.75.75,0,0,0,.51-.21.72.72,0,0,0,.21-.51v-3.37a.39.39,0,0,1,.3-.38,11,11,0,0,0,2.46-1.05,11.62,11.62,0,0,0,2.17-1.63.39.39,0,0,1,.48-.05l2.9,1.68a.73.73,0,0,0,1-.27v0l2.06-3.56h0a.71.71,0,0,0,.07-.55.73.73,0,0,0-.33-.44l-2.93-1.69a.38.38,0,0,1-.18-.42h0a12,12,0,0,0,.25-1.33,11.6,11.6,0,0,0,0-2.72,11.39,11.39,0,0,0-.25-1.32.4.4,0,0,1,.21-.44l2.9-1.68a.73.73,0,0,0,.33-.44.71.71,0,0,0-.07-.55v0l-2.06-3.56h0a.74.74,0,0,0-.44-.34.71.71,0,0,0-.55.07h0l-2.92,1.69a.39.39,0,0,1-.47-.06,11,11,0,0,0-4.64-2.68.38.38,0,0,1-.28-.37v-3.38a.72.72,0,0,0-.21-.51.75.75,0,0,0-.51-.21h-4.14a.72.72,0,0,0-.51.21.73.73,0,0,0-.22.51v3.38A.38.38,0,0,1,470.4,119.92Z"/><path class="cls-28" d="M597.12,223.09a14.8,14.8,0,0,1,21,0,14.82,14.82,0,0,1,0,21,14.8,14.8,0,0,1-21,0,14.82,14.82,0,0,1,0-21Zm5.33-2a13.46,13.46,0,1,0,14.66,22,13.28,13.28,0,0,0,2.93-4.37,13.48,13.48,0,0,0-7.29-17.58,13.51,13.51,0,0,0-10.3,0Zm-1.63-10.91a24.08,24.08,0,0,0-2.74,1,24.69,24.69,0,0,0-2.62,1.32,24,24,0,0,0-2.47,1.63,23.23,23.23,0,0,0-2.26,1.93,1.51,1.51,0,0,1-.89.42,1.58,1.58,0,0,1-1-.19c-2.17-1.26-4.46-2.5-6.6-3.82a1.19,1.19,0,0,0-.32-.1,1.1,1.1,0,0,0-.36,0,.8.8,0,0,0-.33.17.78.78,0,0,0-.24.27c-1.59,2.4-3.18,5.5-4.65,8a.78.78,0,0,0-.12.34.83.83,0,0,0,0,.38.84.84,0,0,0,.16.33.88.88,0,0,0,.27.24c2,1.3,4.49,2.59,6.56,3.79a1.57,1.57,0,0,1,.66.74,1.68,1.68,0,0,1,.09.32l.14,0-.15.61c-.12.48-.23,1-.31,1.44s-.16.95-.22,1.46-.11,1-.14,1.48,0,1,0,1.49,0,1,0,1.48.07,1,.14,1.48.13,1,.22,1.46.19,1,.31,1.45a1.56,1.56,0,0,1-.8,1.75l-5.81,3.35h0l-.69.4a1.05,1.05,0,0,0-.27.24.84.84,0,0,0-.16.33.83.83,0,0,0,0,.38.73.73,0,0,0,.12.34l4.29,7.45h0l.35.6a.78.78,0,0,0,.24.27.8.8,0,0,0,.33.17,1.16,1.16,0,0,0,.37,0,1.06,1.06,0,0,0,.34-.12c2.08-1.31,4.43-2.55,6.58-3.79a1.53,1.53,0,0,1,1.84.22h0A23.23,23.23,0,0,0,593,253a24.17,24.17,0,0,0,5.11,3,23.44,23.44,0,0,0,2.78,1,1.6,1.6,0,0,1,.82.56,1.54,1.54,0,0,1,.31.94V266a1,1,0,0,0,.07.35,1.06,1.06,0,0,0,.21.31.9.9,0,0,0,.3.21,1,1,0,0,0,.36.06h9.3a1,1,0,0,0,.36-.06,1.06,1.06,0,0,0,.31-.21,1.27,1.27,0,0,0,.2-.31.84.84,0,0,0,.07-.35v-7.59a1.56,1.56,0,0,1,.34-1,1.52,1.52,0,0,1,.86-.55,24.63,24.63,0,0,0,2.73-1,26.67,26.67,0,0,0,2.62-1.31,24,24,0,0,0,2.47-1.64,23.23,23.23,0,0,0,2.26-1.93,1.58,1.58,0,0,1,.94-.42,1.51,1.51,0,0,1,1,.25l6.49,3.74a1,1,0,0,0,.34.12,1.16,1.16,0,0,0,.37,0,.91.91,0,0,0,.34-.17,1.05,1.05,0,0,0,.24-.27c1.54-2.68,3.1-5.36,4.65-8a.85.85,0,0,0,.11-.34.83.83,0,0,0,0-.38,1,1,0,0,0-.42-.57l-6.57-3.79a1.48,1.48,0,0,1-.65-.73,1.25,1.25,0,0,1-.09-.25l-.17,0,.18-.69c.11-.48.22-1,.3-1.44s.16-1,.23-1.47.1-1,.13-1.47,0-1,0-1.49,0-1,0-1.49-.07-1-.13-1.48-.14-1-.23-1.47-.19-.95-.3-1.43A1.52,1.52,0,0,1,632,226l6.5-3.76a.93.93,0,0,0,.43-.57.82.82,0,0,0,0-.38.9.9,0,0,0-.11-.34c-1.59-2.36-3.18-5.51-4.65-8a1.05,1.05,0,0,0-.24-.27.91.91,0,0,0-.34-.17,1.16,1.16,0,0,0-.37,0,1.06,1.06,0,0,0-.34.12l-6.57,3.79a1.52,1.52,0,0,1-1,.2,1.57,1.57,0,0,1-.89-.44,25.5,25.5,0,0,0-2.24-1.92,24.44,24.44,0,0,0-2.47-1.62,22.42,22.42,0,0,0-2.64-1.32,24.69,24.69,0,0,0-2.78-1,1.43,1.43,0,0,1-.81-.56,1.54,1.54,0,0,1-.32-.93v-7.58a.86.86,0,0,0-.07-.36,1.05,1.05,0,0,0-.51-.51.86.86,0,0,0-.36-.07H603a.86.86,0,0,0-.36.07.9.9,0,0,0-.3.21.93.93,0,0,0-.28.66v7.58a1.55,1.55,0,0,1-.33,1,1.59,1.59,0,0,1-.86.55Zm-3.28-.29a25.92,25.92,0,0,0-5.38,3.12,27.12,27.12,0,0,0-2.38,2,.16.16,0,0,1-.11,0,.14.14,0,0,1-.11,0l-6.62-3.83a2.58,2.58,0,0,0-.83-.26,2.37,2.37,0,0,0-.88.07,2.45,2.45,0,0,0-.81.4,2.39,2.39,0,0,0-.59.67c-1.6,2.6-3.12,5.4-4.65,8.06a2.2,2.2,0,0,0-.29.85,2.26,2.26,0,0,0,.06.9,2.45,2.45,0,0,0,.4.81,2.32,2.32,0,0,0,.68.6c2.11,1.3,4.4,2.54,6.56,3.79a.3.3,0,0,1,.08.08.49.49,0,0,1,0,.12l-.16.61h0l-.18.91c-.1.53-.18,1-.24,1.55s-.11,1-.14,1.56-.05,1.05-.05,1.57,0,1,.05,1.56.08,1.06.14,1.56.14,1,.24,1.55.21,1,.33,1.52a.24.24,0,0,1,0,.12.2.2,0,0,1-.09.09c-2.41,1.29-4.86,2.8-7.24,4.18l.08.11-.07.09a2.45,2.45,0,0,0-.4.81,2.28,2.28,0,0,0-.06.9,2.25,2.25,0,0,0,.29.86l5,8.65.09-.05.15.12a2.27,2.27,0,0,0,.81.4,2.31,2.31,0,0,0,.91.06,2.13,2.13,0,0,0,.83-.27c2.18-1.16,4.44-2.56,6.59-3.81a.2.2,0,0,1,.11,0l.11.05a25.91,25.91,0,0,0,5,3.76,26,26,0,0,0,2.79,1.4,27.12,27.12,0,0,0,3,1,.21.21,0,0,1,.13.18V266a2.34,2.34,0,0,0,.68,1.63,2.4,2.4,0,0,0,.75.5,2.16,2.16,0,0,0,.88.18h9.3a2.16,2.16,0,0,0,.88-.18,2.4,2.4,0,0,0,.75-.5,2.27,2.27,0,0,0,.51-.75,2.42,2.42,0,0,0,.17-.88v-7.59a.21.21,0,0,1,0-.11.17.17,0,0,1,.1-.06h0a26.48,26.48,0,0,0,2.92-1,24.85,24.85,0,0,0,2.78-1.39,24.08,24.08,0,0,0,2.61-1.73,25.51,25.51,0,0,0,2.38-2,.16.16,0,0,1,.11-.05.13.13,0,0,1,.12,0l6.56,3.79a2.23,2.23,0,0,0,.86.28,2.28,2.28,0,0,0,.9-.06,2.19,2.19,0,0,0,.81-.4,2.14,2.14,0,0,0,.58-.65c1.73-2.78,3.35-5.81,5-8.66l-.09-.05a1.7,1.7,0,0,0,0-.22,2.32,2.32,0,0,0-.46-1.71,2,2,0,0,0-.68-.59L632.61,240a.16.16,0,0,1-.07-.09.17.17,0,0,1,0-.12l.17-.69h0c.06-.28.11-.55.16-.83.1-.52.18-1,.24-1.55s.11-1,.14-1.56,0-1,0-1.56,0-1,0-1.57-.08-1.06-.14-1.57-.14-1-.24-1.54-.2-1-.32-1.52a.13.13,0,0,1,0-.12.14.14,0,0,1,.08-.09l6.56-3.78a2.16,2.16,0,0,0,.67-.6,2.32,2.32,0,0,0,.46-1.71,2.33,2.33,0,0,0-.28-.83c-1.56-2.9-3.35-5.82-5-8.68l-.1.06-.15-.13a2.36,2.36,0,0,0-.81-.4,2.28,2.28,0,0,0-.9-.06,2.42,2.42,0,0,0-.86.28l-.48.28h0l-6.09,3.51a.17.17,0,0,1-.12,0,.16.16,0,0,1-.1,0l0,0a25.73,25.73,0,0,0-2.37-2,24.87,24.87,0,0,0-2.6-1.72,26.19,26.19,0,0,0-5.73-2.44.17.17,0,0,1-.1-.06.3.3,0,0,1,0-.11v-7.58a2.34,2.34,0,0,0-.17-.88,2.31,2.31,0,0,0-.51-.76,2.4,2.4,0,0,0-.75-.5,2.34,2.34,0,0,0-.88-.17H603a2.34,2.34,0,0,0-.88.17,2.4,2.4,0,0,0-.75.5,2.31,2.31,0,0,0-.68,1.64v7.58a.21.21,0,0,1,0,.11.13.13,0,0,1-.1.06l0,0A25.34,25.34,0,0,0,597.54,209.94Z"/><path class="cls-4" d="M69,94.63a1.08,1.08,0,0,0-2.16,0v2.53H64.26a1.08,1.08,0,0,0,0,2.16H66.8v2.54a1.08,1.08,0,1,0,2.16,0V99.32H71.5a1.08,1.08,0,0,0,0-2.16H69Z"/><path class="cls-4" d="M255.85,32.3a1.08,1.08,0,1,0-2.16,0v2.53h-2.53a1.08,1.08,0,1,0,0,2.16h2.53v2.54a1.08,1.08,0,1,0,2.16,0V37h2.54a1.08,1.08,0,0,0,0-2.16h-2.54Z"/><path class="cls-4" d="M354.85,25a1.08,1.08,0,1,0-2.16,0V27.5h-2.54a1.08,1.08,0,1,0,0,2.16h2.54V32.2a1.08,1.08,0,1,0,2.16,0V29.66h2.53a1.08,1.08,0,0,0,0-2.16h-2.53Z"/><path class="cls-4" d="M538.17,247.39a1.08,1.08,0,1,0-2.16,0v2.54h-2.54a1.08,1.08,0,0,0,0,2.16H536v2.54a1.08,1.08,0,1,0,2.16,0v-2.54h2.53a1.08,1.08,0,0,0,0-2.16h-2.53Z"/><path class="cls-4" d="M120.2,343.94a1.08,1.08,0,1,0-2.16,0v2.54H115.5a1.08,1.08,0,0,0,0,2.16H118v2.53a1.08,1.08,0,1,0,2.16,0v-2.53h2.53a1.08,1.08,0,1,0,0-2.16H120.2Z"/><path class="cls-4" d="M70.09,164.29a1.08,1.08,0,0,0-2.16,0v2.53H65.39a1.08,1.08,0,0,0,0,2.16h2.54v2.54a1.08,1.08,0,1,0,2.16,0V169h2.54a1.08,1.08,0,0,0,0-2.16H70.09Z"/><rect class="cls-38" x="348.7" y="271.44" width="113.5" height="116.15" rx="3.87"/><rect class="cls-39" x="438.07" y="271.44" width="46.01" height="116.15" rx="3.87"/><rect class="cls-40" x="445.24" y="280.86" width="31.68" height="6.13" rx="2.11"/><path class="cls-41" d="M474.18,283a2.12,2.12,0,0,0-2.11-2.12h2.73a2.12,2.12,0,0,1,2.11,2.12v1.9A2.12,2.12,0,0,1,474.8,287h-2.73c.13,0,2.11-.95,2.11-2.11Z"/><rect class="cls-40" x="445.24" y="290.29" width="31.68" height="6.13" rx="2.11"/><path class="cls-41" d="M474.18,292.4a2.12,2.12,0,0,0-2.11-2.11h2.73a2.12,2.12,0,0,1,2.11,2.11v1.91a2.12,2.12,0,0,1-2.11,2.11h-2.73c.13,0,2.11-.95,2.11-2.11Z"/><rect class="cls-40" x="445.24" y="299.72" width="31.68" height="6.13" rx="2.11"/><path class="cls-41" d="M474.18,301.83a2.12,2.12,0,0,0-2.11-2.11h2.73a2.12,2.12,0,0,1,2.11,2.11v1.91a2.12,2.12,0,0,1-2.11,2.11h-2.73c.13,0,2.11-1,2.11-2.11Z"/><rect class="cls-40" x="445.24" y="309.15" width="31.68" height="6.13" rx="2.11"/><path class="cls-41" d="M474.18,311.26a2.12,2.12,0,0,0-2.11-2.11h2.73a2.12,2.12,0,0,1,2.11,2.11v1.9a2.11,2.11,0,0,1-2.11,2.11h-2.73c.13,0,2.11-.94,2.11-2.11Z"/><rect class="cls-40" x="444.48" y="337.4" width="33.18" height="33.37" rx="8.6"/><path class="cls-41" d="M474.46,346a8.63,8.63,0,0,0-8.6-8.6h3.21a8.62,8.62,0,0,1,8.59,8.6v16.18a8.61,8.61,0,0,1-8.59,8.59h-3.21a8.62,8.62,0,0,0,8.6-8.59Z"/><path class="cls-42" d="M462,337.4h-1.93v9.68a7.09,7.09,0,0,0-6,6.05h-9.68v1.92h9.68a7.06,7.06,0,0,0,6,6v9.68H462v-9.68a7.06,7.06,0,0,0,6-6h9.68v-1.92h-9.68a7.09,7.09,0,0,0-6-6.05V337.4Zm-1,21.85a5.16,5.16,0,1,1,5.16-5.16A5.16,5.16,0,0,1,461.07,359.25Z"/><rect class="cls-40" x="444.48" y="328.38" width="14.52" height="6.13" rx="2.11"/><path class="cls-41" d="M456.27,330.49a2.12,2.12,0,0,0-2.11-2.11h2.73a2.12,2.12,0,0,1,2.11,2.11v1.9a2.12,2.12,0,0,1-2.11,2.12h-2.73c.13,0,2.11-.95,2.11-2.12Z"/><rect class="cls-40" x="444.48" y="319.23" width="14.52" height="6.13" rx="2.11"/><path class="cls-41" d="M456.27,321.34a2.12,2.12,0,0,0-2.11-2.11h2.73a2.12,2.12,0,0,1,2.11,2.11v1.91a2.12,2.12,0,0,1-2.11,2.11h-2.73c.13,0,2.11-.95,2.11-2.11Z"/><rect class="cls-39" x="358.39" y="283.24" width="53.29" height="53.59" rx="13.81"/><rect class="cls-43" x="360.18" y="285.04" width="49.7" height="49.99" rx="12.88"/><path class="cls-44" d="M364.29,331.57a12.87,12.87,0,0,0,8.77,3.46H397a12.92,12.92,0,0,0,12.88-12.88V303H398.8V289.42H372.4V318.2h-8.11Z"/><path class="cls-25" d="M422.49,346.43h-1.58a1.44,1.44,0,0,0,1.29.82,1.45,1.45,0,0,0,1.27-.76,8.06,8.06,0,0,0-1-.06Zm-2.74,0h-2.59a1.44,1.44,0,0,0,1.29.82,1.45,1.45,0,0,0,1.3-.82Zm-3.75,0h-2.59a1.44,1.44,0,0,0,1.29.82,1.45,1.45,0,0,0,1.3-.82Zm-3.75,0h-2.59a1.44,1.44,0,0,0,1.29.82,1.45,1.45,0,0,0,1.3-.82Zm-3.75,0h-1.58a7.93,7.93,0,0,0-1,.06,1.43,1.43,0,0,0,2.56-.06Zm-4,.36a7.86,7.86,0,0,0-1.17.45h.12a1.46,1.46,0,0,0,1.05-.46ZM401,348.91a8.6,8.6,0,0,0-1.51,2.07l.23,0a1.45,1.45,0,0,0,1.28-2.09Zm-2,3.14a8.42,8.42,0,0,0-.45,2.13,1.44,1.44,0,1,0,.45-2.13Zm-.47,4.16v1.69a1.44,1.44,0,1,0,0-1.69Zm0,3.75v1.69a1.44,1.44,0,1,0,0-1.69Zm0,3.75v1.69a1.44,1.44,0,1,0,0-1.69Zm0,3.75v1.69a1.44,1.44,0,1,0,0-1.69Zm0,3.72a8.32,8.32,0,0,0,.45,2.13,1.43,1.43,0,0,0,2.12-1.26,1.43,1.43,0,0,0-1.43-1.43,1.41,1.41,0,0,0-1.14.56Zm.91,3.2a8.6,8.6,0,0,0,1.51,2.07,1.44,1.44,0,0,0-1.28-2.08Zm3.86,3.74a7.86,7.86,0,0,0,1.17.45,1.45,1.45,0,0,0-1.05-.45Zm2.6.75a7.93,7.93,0,0,0,1,.06h1.58a1.44,1.44,0,0,0-2.56-.06Zm3.72.06h2.59a1.44,1.44,0,0,0-1.3-.81,1.43,1.43,0,0,0-1.29.81Zm3.75,0H416a1.44,1.44,0,0,0-1.3-.81,1.43,1.43,0,0,0-1.29.81Zm3.75,0h2.59a1.44,1.44,0,0,0-1.3-.81,1.43,1.43,0,0,0-1.29.81Zm3.75,0h1.58a8.06,8.06,0,0,0,1-.06,1.44,1.44,0,0,0-1.27-.75,1.43,1.43,0,0,0-1.29.81Zm4-.36a7.74,7.74,0,0,0,1.16-.45H426a1.43,1.43,0,0,0-1.05.45Zm3.52-2.12a8.6,8.6,0,0,0,1.51-2.07h-.23a1.44,1.44,0,0,0-1.44,1.43,1.42,1.42,0,0,0,.16.65Zm2-3.14a8.32,8.32,0,0,0,.45-2.13,1.46,1.46,0,0,0-1.14-.56,1.44,1.44,0,1,0,.69,2.69Zm.47-4.16v-1.69a1.42,1.42,0,0,0-1.16-.59,1.44,1.44,0,1,0,0,2.87,1.42,1.42,0,0,0,1.16-.59Zm0-3.75v-1.69a1.42,1.42,0,0,0-1.16-.59,1.44,1.44,0,1,0,0,2.87,1.42,1.42,0,0,0,1.16-.59Zm0-3.75V360a1.42,1.42,0,0,0-1.16-.59,1.44,1.44,0,1,0,0,2.87,1.42,1.42,0,0,0,1.16-.59Zm0-3.75v-1.69a1.42,1.42,0,0,0-1.16-.59,1.44,1.44,0,1,0,0,2.87,1.42,1.42,0,0,0,1.16-.59Zm0-3.72a8.42,8.42,0,0,0-.45-2.13,1.43,1.43,0,1,0,.45,2.13Zm-.91-3.2a8.6,8.6,0,0,0-1.51-2.07A1.43,1.43,0,0,0,429.7,351l.23,0Zm-3.87-3.74a7.74,7.74,0,0,0-1.16-.45,1.44,1.44,0,0,0,1.05.46Zm-22.6,30a1.44,1.44,0,1,1,1.43-1.44,1.43,1.43,0,0,1-1.43,1.44Zm3.75,0a1.44,1.44,0,1,1,1.43-1.44,1.43,1.43,0,0,1-1.43,1.44Zm3.74,0a1.44,1.44,0,1,1,1.44-1.44,1.43,1.43,0,0,1-1.44,1.44Zm3.75,0a1.44,1.44,0,1,1,1.44-1.44,1.43,1.43,0,0,1-1.44,1.44Zm3.75,0a1.44,1.44,0,1,1,1.44-1.44,1.43,1.43,0,0,1-1.44,1.44Zm3.75,0a1.44,1.44,0,1,1,1.44-1.44,1.43,1.43,0,0,1-1.44,1.44Zm3.75,0a1.44,1.44,0,1,1,1.44-1.44,1.43,1.43,0,0,1-1.44,1.44Zm-22.49-6.62a1.44,1.44,0,1,0,1.43,1.43,1.43,1.43,0,0,0-1.43-1.43Zm3.75,0a1.44,1.44,0,1,0,1.43,1.43,1.43,1.43,0,0,0-1.43-1.43Zm3.74,0a1.44,1.44,0,1,0,1.44,1.43,1.43,1.43,0,0,0-1.44-1.43Zm3.75,0a1.44,1.44,0,1,0,1.44,1.43,1.43,1.43,0,0,0-1.44-1.43Zm3.75,0a1.44,1.44,0,1,0,1.44,1.43,1.43,1.43,0,0,0-1.44-1.43Zm3.75,0a1.44,1.44,0,1,0,1.44,1.43,1.43,1.43,0,0,0-1.44-1.43Zm3.75,0a1.44,1.44,0,1,0,1.44,1.43,1.43,1.43,0,0,0-1.44-1.43Zm-22.49-.88a1.44,1.44,0,1,1,1.43-1.44,1.43,1.43,0,0,1-1.43,1.44Zm3.75,0a1.44,1.44,0,1,1,1.43-1.44,1.43,1.43,0,0,1-1.43,1.44Zm3.74,0a1.44,1.44,0,1,1,1.44-1.44,1.43,1.43,0,0,1-1.44,1.44Zm3.75,0a1.44,1.44,0,1,1,1.44-1.44,1.43,1.43,0,0,1-1.44,1.44Zm3.75,0a1.44,1.44,0,1,1,1.44-1.44,1.43,1.43,0,0,1-1.44,1.44Zm3.75,0a1.44,1.44,0,1,1,1.44-1.44,1.43,1.43,0,0,1-1.44,1.44Zm3.75,0a1.44,1.44,0,1,1,1.44-1.44,1.43,1.43,0,0,1-1.44,1.44Zm-22.49-6.62a1.44,1.44,0,1,0,1.43,1.44,1.43,1.43,0,0,0-1.43-1.44Zm3.75,0a1.44,1.44,0,1,0,1.43,1.44,1.43,1.43,0,0,0-1.43-1.44Zm3.74,0a1.44,1.44,0,1,0,1.44,1.44,1.43,1.43,0,0,0-1.44-1.44Zm3.75,0a1.44,1.44,0,1,0,1.44,1.44,1.43,1.43,0,0,0-1.44-1.44Zm3.75,0a1.44,1.44,0,1,0,1.44,1.44,1.43,1.43,0,0,0-1.44-1.44Zm3.75,0a1.44,1.44,0,1,0,1.44,1.44,1.43,1.43,0,0,0-1.44-1.44Zm3.75,0a1.44,1.44,0,1,0,1.44,1.44,1.43,1.43,0,0,0-1.44-1.44Zm-22.49-.88a1.44,1.44,0,1,1,1.43-1.43,1.43,1.43,0,0,1-1.43,1.43Zm3.75,0a1.44,1.44,0,1,1,1.43-1.43,1.43,1.43,0,0,1-1.43,1.43Zm3.74,0a1.44,1.44,0,1,1,1.44-1.43,1.43,1.43,0,0,1-1.44,1.43Zm3.75,0a1.44,1.44,0,1,1,1.44-1.43,1.43,1.43,0,0,1-1.44,1.43Zm3.75,0a1.44,1.44,0,1,1,1.44-1.43,1.43,1.43,0,0,1-1.44,1.43Zm3.75,0a1.44,1.44,0,1,1,1.44-1.43,1.43,1.43,0,0,1-1.44,1.43Zm3.75,0a1.44,1.44,0,1,1,1.44-1.43,1.43,1.43,0,0,1-1.44,1.43Zm-22.49-6.62a1.44,1.44,0,1,0,1.43,1.44,1.43,1.43,0,0,0-1.43-1.44Zm3.75,0a1.44,1.44,0,1,0,1.43,1.44,1.43,1.43,0,0,0-1.43-1.44Zm3.74,0a1.44,1.44,0,1,0,1.44,1.44,1.43,1.43,0,0,0-1.44-1.44Zm3.75,0a1.44,1.44,0,1,0,1.44,1.44,1.43,1.43,0,0,0-1.44-1.44Zm3.75,0a1.44,1.44,0,1,0,1.44,1.44,1.43,1.43,0,0,0-1.44-1.44Zm3.75,0a1.44,1.44,0,1,0,1.44,1.44,1.43,1.43,0,0,0-1.44-1.44Zm3.75,0a1.44,1.44,0,1,0,1.44,1.44,1.43,1.43,0,0,0-1.44-1.44Zm-22.49-.88a1.44,1.44,0,1,1,1.43-1.43,1.43,1.43,0,0,1-1.43,1.43Zm3.75,0a1.44,1.44,0,1,1,1.43-1.43,1.43,1.43,0,0,1-1.43,1.43Zm3.74,0a1.44,1.44,0,1,1,1.44-1.43,1.43,1.43,0,0,1-1.44,1.43Zm3.75,0a1.44,1.44,0,1,1,1.44-1.43,1.43,1.43,0,0,1-1.44,1.43Zm3.75,0a1.44,1.44,0,1,1,1.44-1.43,1.43,1.43,0,0,1-1.44,1.43Zm3.75,0a1.44,1.44,0,1,1,1.44-1.43,1.43,1.43,0,0,1-1.44,1.43Zm3.75,0a1.44,1.44,0,0,1,0-2.87,1.44,1.44,0,1,1,0,2.87Zm-22.49-6.62a1.44,1.44,0,1,0,1.43,1.44,1.44,1.44,0,0,0-1.43-1.44Zm3.75,0a1.44,1.44,0,1,0,1.43,1.44,1.44,1.44,0,0,0-1.43-1.44Zm3.74,0a1.44,1.44,0,1,0,1.44,1.44,1.44,1.44,0,0,0-1.44-1.44Zm3.75,0a1.44,1.44,0,1,0,1.44,1.44,1.44,1.44,0,0,0-1.44-1.44Zm3.75,0a1.44,1.44,0,1,0,1.44,1.44,1.44,1.44,0,0,0-1.44-1.44Zm3.75,0a1.44,1.44,0,1,0,1.44,1.44,1.44,1.44,0,0,0-1.44-1.44Zm3.75,0a1.44,1.44,0,1,0,1.44,1.44A1.44,1.44,0,0,0,426,348.12Z"/><path class="cls-25" d="M390.06,376.86H355.55a1,1,0,0,0-1,1h0a1,1,0,0,0,1,1h34.51a1,1,0,0,0,1-1h0A1,1,0,0,0,390.06,376.86Z"/><path class="cls-25" d="M390.06,372.51H355.55a1,1,0,0,0-1,1h0a1,1,0,0,0,1,1h34.51a1,1,0,0,0,1-1h0A1,1,0,0,0,390.06,372.51Z"/><path class="cls-25" d="M390.06,368.17H355.55a1,1,0,0,0-1,1h0a1,1,0,0,0,1,1h34.51a1,1,0,0,0,1-1h0A1,1,0,0,0,390.06,368.17Z"/><path class="cls-25" d="M390.06,363.82H361.4a1,1,0,0,0-1,1h0a1,1,0,0,0,1,1h28.66a1,1,0,0,0,1-1h0A1,1,0,0,0,390.06,363.82Z"/><path class="cls-25" d="M390.06,359.47H355.55a1,1,0,0,0-1,1h0a1,1,0,0,0,1,1h34.51a1,1,0,0,0,1-1h0A1,1,0,0,0,390.06,359.47Z"/><path class="cls-25" d="M390.06,355.13H355.55a1,1,0,0,0-1,1h0a1,1,0,0,0,1,1h34.51a1,1,0,0,0,1-1h0A1,1,0,0,0,390.06,355.13Z"/><path class="cls-25" d="M383.65,350.78h-28.1a1,1,0,0,0-1,1h0a1,1,0,0,0,1,1h28.1a1,1,0,0,0,1-1h0A1,1,0,0,0,383.65,350.78Z"/><path class="cls-25" d="M390.06,346.43H355.55a1,1,0,0,0-1,1h0a1,1,0,0,0,1,1h34.51a1,1,0,0,0,1-1h0A1,1,0,0,0,390.06,346.43Z"/><path class="cls-25" d="M357.06,363.82h-1.51a1,1,0,0,0-1,1h0a1,1,0,0,0,1,1h1.51a1,1,0,0,0,1-1h0A1,1,0,0,0,357.06,363.82Z"/><path class="cls-25" d="M390.06,350.78H387.6a1,1,0,0,0-1,1h0a1,1,0,0,0,1,1h2.46a1,1,0,0,0,1-1h0A1,1,0,0,0,390.06,350.78Z"/><path class="cls-45" d="M377.59,285h-4.53a12.88,12.88,0,0,0-9.63,4.35l42.26,42.25a12.86,12.86,0,0,0,4.19-9.49v-4.82L377.59,285Zm-16.47,8.07L402,334a12.76,12.76,0,0,1-5,1h-1.36l-35.46-35.46v-1.65A12.65,12.65,0,0,1,361.12,293.11Z"/></g></g></svg>